<?xml version="1.0" encoding="utf-8"?>
<!-- Generator: Adobe Illustrator 27.2.0, SVG Export Plug-In . SVG Version: 6.00 Build 0)  -->
<svg version="1.1" id="exportSvg" xmlns="http://www.w3.org/2000/svg" xmlns:xlink="http://www.w3.org/1999/xlink" x="0px" y="0px"
	 viewBox="0 0 816 430" style="enable-background:new 0 0 816 430;" xml:space="preserve">
<style type="text/css">
	.st0{fill:#181818;}
	.st1{font-family:'ArialMT';}
	.st2{font-size:12px;}
	.st3{fill:#131199;}
	.st4{fill:#F5ED2C;}
	.st5{fill:#A2A2A2;}
	.st6{opacity:0.4;fill:none;stroke:#FFFFFF;enable-background:new    ;}
	.st7{font-family:'Arial-BoldMT';}
</style>
<text transform="matrix(1 0 0 1 105.1582 121.8984)" class="st0 st1 st2">night</text>
<rect x="88.2" y="110.3" class="st3" width="14" height="14"/>
<text transform="matrix(1 0 0 1 158.9551 121.8984)" class="st0 st1 st2">day</text>
<rect x="142" y="110.3" class="st4" width="14" height="14"/>
<text transform="matrix(1 0 0 1 204.8457 121.8984)" class="st0 st1 st2">evening</text>
<rect x="187.8" y="110.3" class="st3" width="14" height="14"/>
<text transform="matrix(1 0 0 1 89.1582 170.4922)" class="st0 st1 st2">Dec. 21, 2022</text>
<rect x="172.7" y="153.7" class="st3" width="155.4" height="24"/>
<rect x="328.1" y="153.7" class="st4" width="199.3" height="24"/>
<rect x="527.5" y="153.7" class="st3" width="159.7" height="24"/>
<text transform="matrix(1 0 0 1 89.1582 194.4922)" class="st0 st1 st2">Jan. 21, 2023</text>
<rect x="172.7" y="177.7" class="st3" width="154.7" height="24"/>
<rect x="327.4" y="177.7" class="st4" width="210.1" height="24"/>
<rect x="537.5" y="177.7" class="st3" width="149.7" height="24"/>
<text transform="matrix(1 0 0 1 89.1582 218.4922)" class="st0 st1 st2">Feb. 21, 2023</text>
<rect x="172.7" y="201.7" class="st3" width="142.9" height="24"/>
<rect x="315.6" y="201.7" class="st4" width="235.4" height="24"/>
<rect x="551" y="201.7" class="st3" width="136.1" height="24"/>
<text transform="matrix(1 0 0 1 89.1582 242.4922)" class="st0 st1 st2">Mar. 20, 2023</text>
<rect x="172.7" y="225.7" class="st3" width="149.3" height="24"/>
<rect x="322" y="225.7" class="st4" width="261.2" height="24"/>
<rect x="583.2" y="225.7" class="st3" width="104" height="24"/>
<text transform="matrix(1 0 0 1 89.1582 266.4922)" class="st0 st1 st2">Apr. 21, 2023</text>
<rect x="172.7" y="249.7" class="st3" width="131.1" height="24"/>
<rect x="303.8" y="249.7" class="st4" width="291.2" height="24"/>
<rect x="595" y="249.7" class="st3" width="92.2" height="24"/>
<text transform="matrix(1 0 0 1 89.1582 290.4922)" class="st0 st1 st2">May. 21, 2023</text>
<rect x="172.7" y="273.7" class="st3" width="118.6" height="24"/>
<rect x="291.3" y="273.7" class="st4" width="314.7" height="24"/>
<rect x="606" y="273.7" class="st3" width="81.1" height="24"/>
<text transform="matrix(1 0 0 1 89.1582 314.4922)" class="st0 st1 st2">Jun. 21, 2023</text>
<rect x="172.7" y="297.7" class="st3" width="115.4" height="24"/>
<rect x="288.1" y="297.7" class="st4" width="324.7" height="24"/>
<rect x="612.8" y="297.7" class="st3" width="74.3" height="24"/>
<text transform="matrix(1 0 0 1 172.7363 147.6953)" class="st5 st1 st2">12 am</text>
<text transform="matrix(1 0 0 1 287.999 147.6953)" class="st5 st1 st2">6 am</text>
<text transform="matrix(1 0 0 1 413.2637 147.6953)" class="st5 st1 st2">12 pm</text>
<text transform="matrix(1 0 0 1 545.2021 147.6953)" class="st5 st1 st2">6 pm</text>
<text transform="matrix(1 0 0 1 653.791 147.6953)" class="st5 st1 st2">12 am</text>
<line class="st6" x1="301.3" y1="319.7" x2="301.3" y2="155.7"/>
<line class="st6" x1="429.9" y1="319.7" x2="429.9" y2="155.7"/>
<line class="st6" x1="558.5" y1="319.7" x2="558.5" y2="155.7"/>
<line class="st6" x1="687.1" y1="319.7" x2="687.1" y2="155.7"/>
<line class="st6" x1="172.7" y1="319.7" x2="172.7" y2="155.7"/>
<text transform="matrix(1 0 0 1 280.7832 170.6953)" class="st4 st7 st2">7:15 am</text>
<text transform="matrix(1 0 0 1 401.9229 170.6953)" class="st3 st1 st2">9 h 18 min</text>
<text transform="matrix(1 0 0 1 532.4551 170.6953)" class="st4 st7 st2">4:33 pm</text>
<text transform="matrix(1 0 0 1 280.0645 194.6953)" class="st4 st7 st2">7:13 am</text>
<text transform="matrix(1 0 0 1 401.9229 194.6953)" class="st3 st1 st2">9 h 48 min</text>
<text transform="matrix(1 0 0 1 542.4551 194.6953)" class="st4 st7 st2">5:01 pm</text>
<text transform="matrix(1 0 0 1 268.2676 218.6953)" class="st4 st7 st2">6:40 am</text>
<text transform="matrix(1 0 0 1 398.5859 218.6953)" class="st3 st1 st2">10 h 59 min</text>
<text transform="matrix(1 0 0 1 556.0332 218.6953)" class="st4 st7 st2">5:39 pm</text>
<text transform="matrix(1 0 0 1 274.7051 242.6953)" class="st4 st7 st2">6.58 am</text>
<text transform="matrix(1 0 0 1 399.0312 242.6953)" class="st3 st1 st2">12 h 11 min</text>
<text transform="matrix(1 0 0 1 588.1895 242.6953)" class="st4 st7 st2">7:09 pm</text>
<text transform="matrix(1 0 0 1 256.4863 266.6953)" class="st4 st7 st2">6.07 am</text>
<text transform="matrix(1 0 0 1 398.5859 266.6953)" class="st3 st1 st2">13 h 35 min</text>
<text transform="matrix(1 0 0 1 599.9707 266.6953)" class="st4 st7 st2">7:42 pm</text>
<text transform="matrix(1 0 0 1 243.9863 290.6953)" class="st4 st7 st2">5.32 am</text>
<text transform="matrix(1 0 0 1 398.5859 290.6953)" class="st3 st1 st2">14 h 41 min</text>
<text transform="matrix(1 0 0 1 611.0488 290.6953)" class="st4 st7 st2">8:13 pm</text>
<text transform="matrix(1 0 0 1 240.7676 314.6953)" class="st4 st7 st2">5.23 am</text>
<text transform="matrix(1 0 0 1 398.5859 314.6953)" class="st3 st1 st2">15 h 09 min</text>
<text transform="matrix(1 0 0 1 617.8301 314.6953)" class="st4 st7 st2">8:32 pm</text>
</svg>
